Coordinates
version=1
nRows=16
nColumns=36
inDegrees=yes

Units are S.I. units (second, meters, Newtons, ...)
If the header above contains a line with 'inDegrees', this indicates whether rotational values are in degrees (yes) or radians (no).

endheader
time	pelvis_tilt	pelvis_list	pelvis_rotation	pelvis_tx	pelvis_ty	pelvis_tz	hip_flexion_r	hip_adduction_r	hip_rotation_r	knee_angle_r	knee_angle_r_beta	ankle_angle_r	subtalar_angle_r	mtp_angle_r	hip_flexion_l	hip_adduction_l	hip_rotation_l	knee_angle_l	knee_angle_l_beta	ankle_angle_l	subtalar_angle_l	mtp_angle_l	lumbar_extension	lumbar_bending	lumbar_rotation	arm_flex_r	arm_add_r	arm_rot_r	elbow_flex_r	pro_sup_r	arm_flex_l	arm_add_l	arm_rot_l	elbow_flex_l	pro_sup_l
      0.00000000	     -3.18149338	      2.41387829	     27.38305337	     -0.13152544	      1.13340906	      0.08825855	      7.88209421	     -5.71021200	     -3.53407495	     11.67663608	      0.20379575	      8.78302179	    -12.82006638	     -7.31459584	     11.82402650	      3.72921097	      7.88135003	      6.95993809	      0.12147384	      4.55844703	      3.10873635	     -7.31459584	     -7.42120731	     -2.26298417	     15.36543723	     29.11623933	    -12.47935443	     20.24706822	     30.94493642	     87.04980254	      4.14886768	     10.44906369	    -17.98598187	     26.64535820	     81.21692586
      0.01666670	     -5.26556230	      1.02092072	     27.83653710	     -0.12667744	      1.12724078	      0.09036488	     10.74340252	     -5.29981218	     -6.06308543	     11.72353961	      0.20461437	     12.73180355	    -11.46296757	     -7.34197256	     14.62718451	      3.85343140	     11.00774037	      7.38097488	      0.12882231	      4.84346356	      3.01955477	     -7.34197256	     -3.13879439	     -1.50865505	     18.84718079	     24.14688742	    -13.20267098	     10.50990807	     34.13057294	     85.14443224	      4.36857693	     11.04638280	    -20.39405594	     22.92087808	     80.11776161
      0.03333330	     -6.67910522	      1.27725021	     27.99468778	     -0.12635496	      1.12926331	      0.09269233	     11.60479279	     -6.13696741	     -6.64810417	     10.81575503	      0.18877054	     14.13306419	     -9.80437036	     -7.37446139	     16.17810763	      4.57092195	     11.48418082	      7.59182445	      0.13250233	      4.97158940	      3.41010873	     -7.37446139	     -1.18254378	     -2.79996575	     20.98272739	     21.27095441	    -12.70851014	      7.50594502	     34.29223497	     85.67906280	      4.42862104	     10.25458891	    -17.24086962	     19.94362794	     78.24663632
      0.05000000	     -7.19193507	      1.33664258	     27.68534705	     -0.12429651	      1.12626694	      0.09179980	     11.88472606	     -6.33357837	     -6.77163444	     11.03190091	      0.19254299	     14.78693183	     -9.82351444	     -7.38695822	     16.73497273	      4.72861825	     11.97167147	      7.40870600	      0.12930631	      4.72179374	      3.35097181	     -7.38695822	     -0.34424537	     -3.10156951	     21.90906077	     19.34233812	    -12.65665961	      7.74368854	     34.27214402	     84.70512026	      4.10199226	      9.99830533	    -17.10131303	     18.41406081	     76.45824520
      0.06666670	     -7.67812312	      1.36050670	     27.66897283	     -0.11996858	      1.13054434	      0.09057990	     11.86308265	     -6.45065931	     -7.05495087	     10.68127257	      0.18642337	     14.99791677	     -9.49471658	     -7.38957487	     16.96494845	      4.96949035	     12.36712330	      7.12823927	      0.12441125	      4.01746311	      2.93260014	     -7.38957487	      0.49378758	     -3.27480446	     21.99800149	     16.98721308	    -12.25233685	      7.89225173	     34.24978888	     85.23934486	      4.04602428	      9.67644387	    -17.19381272	     17.09320517	     76.49971096
      0.08333330	     -7.91769204	      1.47427723	     27.73134458	     -0.11577036	      1.12760391	      0.08966851	     11.72490538	     -6.59447278	     -7.06881393	     10.18467003	      0.17775603	     15.58150179	     -8.86738161	     -7.40027444	     16.76404556	      5.13129749	     12.93238415	      6.81654098	      0.11897108	      4.04352523	      2.58155615	     -7.40027444	      1.31451966	     -3.49280442	     22.79465354	     13.86917928	    -11.96989708	      6.32708558	     35.08923146	     85.84810201	      3.88406309	      9.13415526	    -17.81601093	     14.84116295	     75.75596723
      0.10000000	     -8.07961604	      1.32814828	     27.76462159	     -0.11768202	      1.12975303	      0.08929067	     11.61308735	     -6.45526132	     -6.94189983	      9.57624701	      0.16713704	     15.30601664	     -8.88941150	     -7.43779932	     16.52459029	      5.03631280	     13.52619411	      6.09452771	      0.10636957	      3.58700595	      2.47223203	     -7.43779932	      1.87238755	     -3.26484664	     23.32052986	     11.07343352	    -11.21500233	      2.12073980	     35.54217858	     96.66002934	      3.64935365	      8.99917734	    -22.14243762	     13.64224904	     79.41327024
      0.11666670	     -7.94246422	      1.24439188	     27.66311829	     -0.12255164	      1.12948122	      0.08905219	     11.31270955	     -6.32926656	     -7.19276378	      9.45063020	      0.16494461	     14.78035769	     -8.99890972	     -7.43845478	     16.10282040	      4.93156879	     14.00749175	      5.46711731	      0.09541920	      2.97898946	      2.55101636	     -7.43845478	      2.30559317	     -2.76468900	     23.98737267	      9.06535932	    -11.29026413	      2.11567390	     34.88755738	     96.75686821	      1.48708470	      7.71617934	    -22.72435129	     13.15857437	     79.33348753
      0.13333330	     -7.88158329	      1.35156696	     27.24521307	     -0.11478560	      1.13424708	      0.08617598	     11.05076856	     -6.35307802	     -7.01532696	      9.37003092	      0.16353789	     14.09622774	     -9.44770581	     -7.47081681	     15.53869192	      4.91713594	     14.44924151	      4.83429727	      0.08437440	      2.34798986	      1.80834823	     -7.47081681	      2.65777957	     -2.65574559	     24.86970412	      6.77105866	    -10.63878669	     -0.32499478	     34.20730766	    101.28852755	     -0.17702544	      7.23440384	    -32.43747697	     13.44520192	     85.80251431
      0.15000000	     -7.72681294	      1.40907425	     26.66549367	     -0.12011616	      1.13750037	      0.08431991	     10.87311069	     -6.35946441	     -6.86317007	      9.17372521	      0.16011171	     13.39662202	     -9.45107412	     -7.47231930	     14.95226011	      4.89892843	     14.63559950	      3.82593243	      0.06677512	      1.92463128	      1.74191503	     -7.47231930	      2.82413825	     -2.21786983	     25.41458172	      5.23833036	    -10.47504429	     -0.71820613	     32.58077372	    101.32931798	     -1.54573920	      6.30300741	    -34.58265577	     12.50395231	     85.42458934
      0.16666670	     -7.29061842	      1.58061354	     26.04787677	     -0.11566425	      1.14257110	      0.08198250	     10.08407103	     -6.27764370	     -6.85539845	      8.64773160	      0.15093139	     12.92920900	     -9.07666633	     -7.48855567	     13.82736298	      4.77341608	     14.81739241	      2.73807420	      0.04778841	      1.69480317	      2.04545017	     -7.48855567	      2.62535714	     -1.84086671	     25.14715774	      4.26477672	    -10.07951344	     -0.98427179	     30.59421368	    103.20968000	     -3.03772066	      6.43033147	    -45.05789288	     13.73885441	     91.18117097
      0.18333330	     -6.77663038	      1.69957918	     25.75716588	     -0.11026334	      1.13978529	      0.08186945	      8.97539409	     -6.16489936	     -7.03277897	      7.77689125	      0.13573236	     12.51885524	     -8.78331403	     -7.48890613	     12.78001642	      4.55372087	     14.96721452	      2.06496096	      0.03604037	      2.10184693	      2.35989538	     -7.48890613	      2.51893886	     -1.47860109	     25.40360234	      2.66004452	     -9.73900903	     -1.43298369	     28.87187218	    103.25003429	     -3.78588339	      5.77848604	    -46.21117383	     13.47662370	     90.88587391
      0.20000000	     -6.28669180	      1.78694555	     25.54828920	     -0.11013007	      1.13801834	      0.08116511	      8.27929646	     -6.07343613	     -7.21428414	      7.61877106	      0.13297264	     12.03168149	     -8.94797369	     -7.49731184	     11.85279014	      4.29865851	     15.09760787	      1.52891245	      0.02668456	      2.24270557	      2.45789752	     -7.49731184	      2.08588700	     -1.22584442	     24.60873886	      1.88669492	     -9.08152017	     -2.47181224	     26.93311686	    105.31564752	     -3.05355034	      6.56143260	    -54.06696767	     14.65212598	     92.75585512
      0.21666670	     -5.89787887	      1.97638060	     25.32173339	     -0.10556036	      1.13620265	      0.07901181	      7.57724943	     -6.13776118	     -7.40579617	      7.40259508	      0.12919966	     11.75786117	     -8.81338680	     -7.49937033	     10.93368927	      4.21223835	     15.26669387	      1.33306497	      0.02326637	      2.69770756	      2.49921332	     -7.49937033	      1.81774629	     -1.08761759	     24.04597422	      0.93586916	     -8.49101829	     -2.21036966	     24.71665055	    105.11598362	     -2.28881978	      6.39632152	    -53.27320411	     14.27010190	     91.24817093
      0.23333330	     -5.76619774	      2.13070966	     25.09984328	     -0.09717100	      1.13237626	      0.07844287	      7.05312425	     -6.20224131	     -7.35801564	      7.33001533	      0.12793290	     11.87004580	     -8.82984562	     -7.49937285	     10.21350050	      4.12740768	     15.31952763	      1.24472803	      0.02172460	      2.99926696	      2.40991006	     -7.49937285	      2.06724956	     -1.09184763	     23.57588133	     -0.62519853	     -7.84119468	     -2.09198056	     23.99700913	    105.11645207	     -2.42983167	      5.88459273	    -53.33720485	     14.42008106	     91.23058458
      0.25000000	     -5.20071089	      2.37829522	     25.27950319	     -0.08841155	      1.13888738	      0.07493249	      5.25990035	     -6.08931946	     -8.07487205	      6.15542692	      0.10743247	     11.54606391	     -8.36450162	     -7.49938103	      8.89087072	      4.02782540	     15.90511547	      1.13945986	      0.01988733	      3.44522420	      2.62646324	     -7.49938103	      2.18751311	     -1.12263012	     23.33957126	     -1.95676190	     -7.04328724	     -2.03662827	     21.52394283	    105.13781174	     -1.70804533	      5.65170916	    -53.22613663	     14.90599960	     91.33675110
